# Blender v2.78 (sub 0) OBJ File: 'morch.blend'
# www.blender.org
mtllib torch.mtl
o Cylinder
v -0.000000 -0.803535 -0.172101
v -0.000000 0.399340 -0.172101
v 0.121694 -0.803535 -0.121694
v 0.121694 0.399340 -0.121694
v 0.172101 -0.803535 0.000000
v 0.172101 0.399340 0.000000
v 0.121694 -0.803535 0.121694
v 0.121694 0.399340 0.121694
v -0.000000 -0.803535 0.172101
v -0.000000 0.399340 0.172101
v -0.121694 -0.803535 0.121694
v -0.121694 0.399340 0.121694
v -0.172101 -0.803535 -0.000000
v -0.172101 0.399340 -0.000000
v -0.121694 -0.803535 -0.121694
v -0.121694 0.399340 -0.121694
v -0.000000 0.399340 -0.172101
v 0.121694 0.399340 -0.121694
v 0.172101 0.399340 0.000000
v 0.121694 0.399340 0.121694
v -0.000000 0.399340 0.172101
v -0.121694 0.399340 0.121694
v -0.172101 0.399340 -0.000000
v -0.121694 0.399340 -0.121694
v -0.000000 0.555038 -0.237972
v 0.168272 0.555038 -0.168272
v 0.237972 0.555038 0.000000
v 0.168272 0.555038 0.168272
v -0.000000 0.555038 0.237972
v -0.168272 0.555038 0.168272
v -0.237972 0.555038 -0.000000
v -0.168272 0.555038 -0.168272
v -0.000000 0.856330 -0.237972
v 0.168272 0.856330 -0.168272
v 0.237972 0.856330 0.000000
v 0.168272 0.856330 0.168272
v -0.000000 0.856330 0.237972
v -0.168272 0.856330 0.168272
v -0.237972 0.856330 -0.000000
v -0.168272 0.856330 -0.168272
v -0.000000 -0.868370 -0.156330
v 0.110542 -0.868370 -0.110542
v 0.156330 -0.868370 0.000000
v 0.110542 -0.868370 0.110542
v -0.000000 -0.868370 0.156330
v -0.110542 -0.868370 0.110542
v -0.156330 -0.868370 -0.000000
v -0.110542 -0.868370 -0.110542
v -0.000000 0.830905 -0.171373
v 0.121179 0.830905 -0.121179
v 0.171373 0.830905 0.000000
v 0.121179 0.830905 0.121179
v -0.000000 0.830905 0.171373
v -0.121179 0.830905 0.121179
v -0.171373 0.830905 -0.000000
v -0.121179 0.830905 -0.121179
vn 0.3827 0.0000 -0.9239
vn 0.9239 0.0000 -0.3827
vn 0.9239 0.0000 0.3827
vn 0.3827 0.0000 0.9239
vn -0.3827 0.0000 0.9239
vn -0.9239 0.0000 0.3827
vn 0.0000 0.0000 1.0000
vn -0.9239 0.0000 -0.3827
vn -0.3827 0.0000 -0.9239
vn 0.3734 -0.2193 0.9014
vn -0.8605 -0.3640 -0.3564
vn -0.3564 -0.3640 0.8605
vn 0.8605 -0.3640 0.3564
vn 0.3564 -0.3640 -0.8605
vn -0.3564 -0.3640 -0.8605
vn -0.8605 -0.3640 0.3564
vn 0.3564 -0.3640 0.8605
vn 0.8605 -0.3640 -0.3564
vn -0.1461 0.9242 0.3528
vn 0.0000 -1.0000 0.0000
vn -0.9014 -0.2193 -0.3734
vn 0.9014 -0.2193 -0.3734
vn -0.3734 -0.2193 0.9014
vn -0.3734 -0.2193 -0.9014
vn 0.3734 -0.2193 -0.9014
vn 0.9014 -0.2193 0.3734
vn -0.9014 -0.2193 0.3734
vn 0.0000 1.0000 -0.0000
vn 0.1461 0.9242 0.3528
vn 0.3528 0.9242 -0.1461
vn -0.1461 0.9242 -0.3528
vn -0.3528 0.9242 0.1461
vn 0.3528 0.9242 0.1461
vn 0.1461 0.9242 -0.3528
vn -0.3528 0.9242 -0.1461
usemtl None
s off
f 1//1 2//1 4//1 3//1
f 3//2 4//2 6//2 5//2
f 5//3 6//3 8//3 7//3
f 7//4 8//4 10//4 9//4
f 9//5 10//5 12//5 11//5
f 11//6 12//6 14//6 13//6
f 2//7 16//7 24//7 17//7
f 13//8 14//8 16//8 15//8
f 15//9 16//9 2//9 1//9
f 7//10 9//10 45//10 44//10
f 24//11 23//11 31//11 32//11
f 4//7 2//7 17//7 18//7
f 8//7 6//7 19//7 20//7
f 14//7 12//7 22//7 23//7
f 10//7 8//7 20//7 21//7
f 16//7 14//7 23//7 24//7
f 6//7 4//7 18//7 19//7
f 12//7 10//7 21//7 22//7
f 31//6 30//6 38//6 39//6
f 22//12 21//12 29//12 30//12
f 20//13 19//13 27//13 28//13
f 18//14 17//14 25//14 26//14
f 17//15 24//15 32//15 25//15
f 23//16 22//16 30//16 31//16
f 21//17 20//17 28//17 29//17
f 19//18 18//18 26//18 27//18
f 34//19 33//19 49//19 50//19
f 29//4 28//4 36//4 37//4
f 27//2 26//2 34//2 35//2
f 32//8 31//8 39//8 40//8
f 30//5 29//5 37//5 38//5
f 28//3 27//3 35//3 36//3
f 26//1 25//1 33//1 34//1
f 25//9 32//9 40//9 33//9
f 41//20 42//20 43//20 44//20 45//20 46//20 47//20 48//20
f 13//21 15//21 48//21 47//21
f 3//22 5//22 43//22 42//22
f 9//23 11//23 46//23 45//23
f 15//24 1//24 41//24 48//24
f 1//25 3//25 42//25 41//25
f 5//26 7//26 44//26 43//26
f 11//27 13//27 47//27 46//27
f 50//28 49//28 56//28 55//28 54//28 53//28 52//28 51//28
f 33//29 40//29 56//29 49//29
f 39//30 38//30 54//30 55//30
f 37//31 36//31 52//31 53//31
f 35//32 34//32 50//32 51//32
f 40//33 39//33 55//33 56//33
f 38//34 37//34 53//34 54//34
f 36//35 35//35 51//35 52//35
